<?xml version="1.0" encoding="iso-8859-1"?>
<!-- Generator: Adobe Illustrator 16.0.0, SVG Export Plug-In . SVG Version: 6.00 Build 0)  -->
<!DOCTYPE svg PUBLIC "-//W3C//DTD SVG 1.1//EN" "http://www.w3.org/Graphics/SVG/1.1/DTD/svg11.dtd">
<svg version="1.1" id="Capa_1" xmlns="http://www.w3.org/2000/svg" xmlns:xlink="http://www.w3.org/1999/xlink" x="0px" y="0px"
	 width="370.157px" height="370.157px" viewBox="0 0 370.157 370.157" style="enable-background:new 0 0 370.157 370.157;"
	 xml:space="preserve">
<g>
	<g>
		<path d="M205.58,141.159c0,0-1.359-0.668-2.204,0.206c-13.875,14.375-35.574,37.229-40.992,39.718
			c-18.36,8.43-36.266-1.145-66.667,29.256L19.9,286.156c-32.081,32.081-20.805,40.127,1.729,62.372
			C43.873,371.062,51.92,382.337,84,350.257l75.817-75.816c30.401-30.4,21.396-47.735,29.826-66.099
			c2.487-5.418,25.523-28.269,38.987-41.722c1.175-1.173-0.01-2.42-0.01-2.42L205.58,141.159z M131.92,280.169l-24.117,24.118
			c-1.688,1.688-4.45,1.688-6.138,0l-35.796-35.796c-1.688-1.688-1.688-4.449,0-6.136l24.118-24.118
			c1.688-1.688,4.449-1.688,6.137,0l35.796,35.796C133.607,275.72,133.607,278.481,131.92,280.169z"/>
		<path d="M368.621,55.601l-26.38-26.38c-0.058-0.062-0.099-0.132-0.157-0.191l-0.957-0.958c-0.062-0.062-0.134-0.104-0.197-0.161
			L314.556,1.536c-2.048-2.048-5.368-2.048-7.416,0l-17.3,17.301c-2.049,2.047-2.049,5.367,0,7.415c0,0,16.16,16.196,21.782,21.782
			c0.365,0.363,0.882,1.261,0.066,2.061c-3.313,3.249-10.878,10.877-10.878,10.877c-0.954,0.954-1.452,2.185-1.516,3.435
			c-0.007,0.149,0.057,0.234-0.062,0.328c-0.119,0.094-0.237,0.043-0.391,0.005c-2.317-0.583-5.134-0.83-7.376,1.414
			c-3.035,3.035-1.136,7.252,0.392,10.641c0.492,1.094,1.264,2.803,1.436,3.749c-0.946-0.172-2.655-0.942-3.75-1.435
			c-3.388-1.526-7.604-3.427-10.639-0.393c-3.036,3.036-1.137,7.253,0.391,10.643c0.493,1.094,1.263,2.803,1.436,3.749
			c-0.945-0.173-2.654-0.942-3.749-1.436c-3.391-1.526-7.604-3.424-10.644-0.391c-1.886,1.887-1.942,4.133-1.577,6.086
			c0.026,0.141-0.199,0.165-0.442-0.111l-2.772-2.771c-1.672-1.671-4.254-1.802-5.769-0.287l-20.204,20.204
			c-1.514,1.514-1.385,4.097,0.287,5.768l14.128,14.128c1.673,1.673,4.255,1.801,5.768,0.287l20.204-20.204
			c1.514-1.514,1.385-4.095-0.287-5.768l-3.521-3.522c-0.381-0.39-0.352-0.817-0.319-1.009c0.387-2.353-0.268-4.578-0.737-6.16
			c-0.201-0.678-0.522-1.761-0.526-2.241c0.885,0.083,2.772,0.934,3.949,1.463c3.391,1.527,7.608,3.426,10.642,0.392
			c3.035-3.035,1.136-7.251-0.392-10.64c-0.492-1.095-1.264-2.805-1.436-3.75c0.945,0.172,2.654,0.941,3.748,1.435
			c3.389,1.526,7.605,3.426,10.643,0.391c3.034-3.035,1.135-7.251-0.393-10.64c-0.54-1.199-1.413-3.138-1.467-4
			c0.536-0.093,2.142,0.392,2.954,0.644c2.359,0.729,5.799,1.564,8.892-0.274c0.584-0.349,0.964-0.842,1.475-1.354l10.628-10.627
			c0,0,1.32-1.207,2.52,0.024c5.753,5.914,5.86,6.283,21.574,21.575c2.049,2.048,5.369,2.048,7.416,0l17.301-17.302
			C370.669,60.969,370.669,57.649,368.621,55.601z"/>
	</g>
</g>
<g>
</g>
<g>
</g>
<g>
</g>
<g>
</g>
<g>
</g>
<g>
</g>
<g>
</g>
<g>
</g>
<g>
</g>
<g>
</g>
<g>
</g>
<g>
</g>
<g>
</g>
<g>
</g>
<g>
</g>
</svg>
